<svg width="180.00000000000003" height="80" xmlns="http://www.w3.org/2000/svg">
 <defs>
  <filter id="svg_1_blur" x="-50%" y="-50%" width="200%" height="200%">
   <feGaussianBlur stdDeviation="0"/>
  </filter>
 </defs>
 <g>
  <rect fill="none" id="canvas_background" height="82" width="182" y="-1" x="-1"/>
 </g>
 <g>
  <g stroke="null" id="svg_5">
   <path stroke="#7f003f" fill="#666666" stroke-width="0.7" d="m198.929853,144.48235c-3.08959,-1.497068 -2.869324,-4.176043 -3.761932,-8.412776c-0.628796,-1.484058 -0.223971,-4.998887 0.91233,-6.281925c-0.496134,2.139472 0.524713,7.335822 1.398246,11.019308c0.205892,1.185993 0.756453,2.48178 1.451356,3.675393zm-2.835936,-8.843917c-0.00722,0.635371 3.651135,-1.936816 10.990222,-4.334843c0.932601,3.236971 0.162346,4.989842 -0.578357,3.933701c-2.697452,-1.100462 -8.128281,3.575392 -10.762944,4.759226m-0.339136,-2.012428c-13.18252,4.644359 -36.179263,15.872947 -48.848158,23.773813m49.352333,-21.849611c-14.956757,5.127709 -31.450248,12.940666 -46.181227,21.741651c-3.929484,2.423356 -3.508843,3.02836 -3.348941,0.655372c0.168782,-1.153066 0.494997,-2.534356 1.425612,-3.476723c15.349297,-8.597779 32.88062,-16.923613 48.826668,-23.222598" id="svg_1" filter="url(#svg_1_blur)"/>
   <text stroke="#191919" fill="#7f003f" stroke-width="0" x="333.480311" y="292.18321" id="svg_2" font-size="24" font-family="Arvo, sans-serif" text-anchor="start" xml:space="preserve" transform="matrix(0.4846206334858287,0,0,0.3658051967447472,11.088238196926682,54.30862312677738) " font-weight="bold" font-style="normal">ESK'a</text>
   <path stroke="#00bfbf" stroke-width="0" opacity="0.6" id="svg_7" d="m148.223205,44.65445c-7.838468,-5.830677 -10.622177,-23.336232 -11.329554,-24.673972c0.997218,3.523587 -3.128568,-12.02464 0.007501,-19.786302c0.800188,7.722034 4.38498,23.808315 6.858005,31.094829l2.644401,8.677193l1.819647,4.688252zm-5.834927,-19.588389c0.411123,-0.774675 14.038559,-4.466448 22.87752,-6.387172c8.838972,-1.920738 -10.081206,2.97578 8.307861,5.03319c18.389067,2.05741 -7.028006,-1.494026 -29.552491,8.229348m-3.541718,-1.829623c-38.686698,8.005225 -125.025536,42.295879 -136.998517,45.146686m137.627192,-42.162698c-32.513451,9.382899 -84.553549,25.947726 -126.257565,43.357477c-11.57717,4.148918 -16.684014,4.028503 -14.07058,1.902057c2.613433,-2.126432 5.927384,-7.219291 4.129474,-7.519551c-1.79791,-0.30026 88.949168,-32.691656 134.09309,-45.152082" fill="#bc005b"/>
   <text stroke="null" transform="matrix(1.503120452603322,0,0,1.4201499430409075,111.1287356086925,86.21682989459681) " xml:space="preserve" text-anchor="start" font-family="'Times New Roman', Times, serif" font-size="24" id="svg_9" y="-24.450927" x="-44.245731" stroke-opacity="null" stroke-width="0" fill="#333333">ESK'a</text>
  </g>
  <path fill="none" stroke-width="0" id="svg_8" d="m21.1875,17.43164c0.625,0 1.63569,0.22934 2.375,0.625c0.88853,0.47553 1.21167,0.68235 1.375,0.75c0.57742,0.23918 0.875,0 1.25,0c0.875,0 1.62346,0.12368 2.375,-0.75c0.76901,-0.894 1,-2.75 1,-3.375l0,-0.875l0,-0.25"/>
  <path fill="none" stroke-width="0" id="svg_11" d="m27.4375,22.05664" stroke="null"/>
  <path fill="none" stroke="null" stroke-width="0" stroke-opacity="null" fill-opacity="null" d="m19.3125,20.18164l-3.8125,3.31836l5,2.25l4.25,-2.625c-1.8125,-0.98112 -9.625,0.53776 -5.4375,-2.94336z" id="svg_12"/>
 </g>
</svg>